<?xml version="1.0" encoding="UTF-8" standalone="no"?>
<svg
   xmlns:dc="http://purl.org/dc/elements/1.1/"
   xmlns:cc="http://creativecommons.org/ns#"
   xmlns:rdf="http://www.w3.org/1999/02/22-rdf-syntax-ns#"
   xmlns:svg="http://www.w3.org/2000/svg"
   xmlns="http://www.w3.org/2000/svg"
   viewBox="0 0 733.33331 533.33331"
   height="533.33331"
   width="733.33331"
   xml:space="preserve"
   id="svg2"
   version="1.1"><metadata
     id="metadata8"><rdf:RDF><cc:Work
         rdf:about=""><dc:format>image/svg+xml</dc:format><dc:type
           rdf:resource="http://purl.org/dc/dcmitype/StillImage" /></cc:Work></rdf:RDF></metadata><defs
     id="defs6"><clipPath
       id="clipPath18"
       clipPathUnits="userSpaceOnUse"><path
         id="path16"
         d="M 0,400 H 550 V 0 H 0 Z" /></clipPath></defs><g
     transform="matrix(1.3333333,0,0,-1.3333333,0,533.33333)"
     id="g10"><g
       id="g12"><g
         clip-path="url(#clipPath18)"
         id="g14"><g
           transform="translate(245.75,116.25)"
           id="g20"><path
             id="path22"
             style="fill:none;stroke:#000000;stroke-width:8;stroke-linecap:square;stroke-linejoin:miter;stroke-miterlimit:3;stroke-dasharray:none;stroke-opacity:1"
             d="M 0,0 C -0.4,0.367 -0.8,0.75 -1.2,1.15 -6.933,6.883 -9.8,13.833 -9.8,22 c 0,8.167 2.867,15.133 8.6,20.9 2.867,2.833 6.017,4.967 9.45,6.4 m 20.5,1.8 H 71.6 c 9.4,0 17.417,3.333 24.05,10 5.167,5.133 8.333,11.1 9.5,17.9 -6.033,3 -12.683,4.5 -19.95,4.5 H -36.25 c -9.8,0 -18.167,3.467 -25.1,10.4 -6.933,6.933 -10.4,15.3 -10.4,25.1 0,9.8 3.467,18.167 10.4,25.1 4.433,4.433 9.45,7.45 15.05,9.05 1.167,4.467 3.5,8.45 7,11.95 5.233,5.233 11.55,7.85 18.95,7.85 h 49.6 c 3.4,-0.2 6.15,-1.283 8.25,-3.25 2.1,-1.967 3.017,-4.217 2.75,-6.75 -0.267,-2.533 -1.65,-4.633 -4.15,-6.3 -2.533,-1.633 -5.35,-2.35 -8.45,-2.15 h -63.9 c -3.533,0 -6.883,-0.45 -10.05,-1.35 -0.6,-2.233 -0.9,-4.583 -0.9,-7.05 0,-7.433 2.633,-13.767 7.9,-19 5.233,-5.267 11.55,-7.9 18.95,-7.9 H 71.6 c 9.4,0 17.417,-3.317 24.05,-9.95 6.667,-6.667 10,-14.7 10,-24.1 0,-2.133 -0.167,-4.183 -0.5,-6.15 4.267,-2.133 8.217,-5.017 11.85,-8.65 8.8,-8.8 13.2,-19.417 13.2,-31.85 C 130.2,26.067 125.8,15.467 117,6.7 108.233,-2.1 97.633,-6.5 85.2,-6.5 H 26.5" /></g><g
           transform="translate(257.55,109.75)"
           id="g24"><path
             id="path26"
             style="fill:none;stroke:#000000;stroke-width:8;stroke-linecap:round;stroke-linejoin:miter;stroke-miterlimit:3;stroke-dasharray:none;stroke-opacity:1"
             d="M 0,0 C -4.367,1.167 -8.3,3.333 -11.8,6.5 M 3.3,57.6 h 13.65 m -20.5,-1.8 c 2,0.833 4.117,1.433 6.35,1.8 M 14.7,0 H 1.4" /></g></g></g></g></svg>